<svg width="167" height="50" viewBox="0 0 167 50" fill="none" xmlns="http://www.w3.org/2000/svg">
<path d="M0.852273 46L6.64773 11.0909H14.0284L11.4886 26.483H11.9489L27.0511 11.0909H35.8977L20.4034 26.7216L30.2557 46H21.4261L14.3011 31.6477L9.90341 36.1136L8.23295 46H0.852273ZM43.7514 46.5114C41.081 46.5114 38.8707 45.9432 37.1207 44.8068C35.3707 43.6591 34.1378 42.0682 33.4219 40.0341C32.7173 37.9886 32.5866 35.608 33.0298 32.892C33.4616 30.2102 34.3594 27.8636 35.723 25.8523C37.0866 23.8409 38.8196 22.2784 40.9219 21.1648C43.0241 20.0398 45.3935 19.4773 48.0298 19.4773C50.6889 19.4773 52.8935 20.0511 54.6435 21.1989C56.3935 22.3352 57.6264 23.9261 58.3423 25.9716C59.0582 28.017 59.1946 30.3977 58.7514 33.1136C58.3082 35.7841 57.3991 38.125 56.0241 40.1364C54.6491 42.1477 52.9162 43.7159 50.8253 44.8409C48.7344 45.9545 46.3764 46.5114 43.7514 46.5114ZM44.4673 40.8864C45.6946 40.8864 46.7798 40.5398 47.723 39.8466C48.6776 39.142 49.4673 38.1875 50.0923 36.983C50.7287 35.767 51.1719 34.392 51.4219 32.858C51.6719 31.3466 51.6889 30.0057 51.473 28.8352C51.2571 27.6534 50.8026 26.7216 50.1094 26.0398C49.4276 25.358 48.4901 25.017 47.2969 25.017C46.0696 25.017 44.9787 25.3693 44.0241 26.0739C43.0696 26.767 42.2798 27.7216 41.6548 28.9375C41.0298 30.1534 40.5923 31.5341 40.3423 33.0795C40.1037 34.5795 40.0866 35.9205 40.2912 37.1023C40.4957 38.2727 40.9446 39.1989 41.6378 39.8807C42.331 40.5511 43.2741 40.8864 44.4673 40.8864ZM74.0071 46H61.4616L67.2571 11.0909H79.5639C83.0753 11.0909 85.9901 11.8068 88.3082 13.2386C90.6378 14.6705 92.2798 16.7216 93.2344 19.392C94.1889 22.0511 94.3594 25.2273 93.7457 28.9205C93.1548 32.4886 91.9787 35.5511 90.2173 38.108C88.456 40.6534 86.2003 42.608 83.4503 43.9716C80.7003 45.3239 77.5526 46 74.0071 46ZM69.8991 39.6761H74.4332C76.6264 39.6761 78.5469 39.267 80.1946 38.4489C81.8537 37.6307 83.2116 36.3693 84.2685 34.6648C85.3366 32.9602 86.0923 30.7784 86.5355 28.1193C86.956 25.5966 86.9276 23.5511 86.4503 21.983C85.9844 20.4034 85.081 19.25 83.7401 18.5227C82.3991 17.7841 80.6378 17.4148 78.456 17.4148H73.598L69.8991 39.6761ZM108.111 46.5114C105.44 46.5114 103.23 45.9432 101.48 44.8068C99.7301 43.6591 98.4972 42.0682 97.7812 40.0341C97.0767 37.9886 96.946 35.608 97.3892 32.892C97.821 30.2102 98.7188 27.8636 100.082 25.8523C101.446 23.8409 103.179 22.2784 105.281 21.1648C107.384 20.0398 109.753 19.4773 112.389 19.4773C115.048 19.4773 117.253 20.0511 119.003 21.1989C120.753 22.3352 121.986 23.9261 122.702 25.9716C123.418 28.017 123.554 30.3977 123.111 33.1136C122.668 35.7841 121.759 38.125 120.384 40.1364C119.009 42.1477 117.276 43.7159 115.185 44.8409C113.094 45.9545 110.736 46.5114 108.111 46.5114ZM108.827 40.8864C110.054 40.8864 111.139 40.5398 112.082 39.8466C113.037 39.142 113.827 38.1875 114.452 36.983C115.088 35.767 115.531 34.392 115.781 32.858C116.031 31.3466 116.048 30.0057 115.832 28.8352C115.616 27.6534 115.162 26.7216 114.469 26.0398C113.787 25.358 112.849 25.017 111.656 25.017C110.429 25.017 109.338 25.3693 108.384 26.0739C107.429 26.767 106.639 27.7216 106.014 28.9375C105.389 30.1534 104.952 31.5341 104.702 33.0795C104.463 34.5795 104.446 35.9205 104.651 37.1023C104.855 38.2727 105.304 39.1989 105.997 39.8807C106.69 40.5511 107.634 40.8864 108.827 40.8864ZM137.446 46.5114C134.753 46.5114 132.537 45.9432 130.798 44.8068C129.071 43.6591 127.861 42.0682 127.168 40.0341C126.486 38 126.366 35.6591 126.81 33.0114C127.241 30.3295 128.145 27.9773 129.52 25.9545C130.895 23.9205 132.639 22.3352 134.753 21.1989C136.878 20.0511 139.264 19.4773 141.912 19.4773C144.196 19.4773 146.128 19.892 147.707 20.7216C149.287 21.5511 150.446 22.7159 151.185 24.2159C151.923 25.7159 152.173 27.4773 151.935 29.5H145.099C145.111 28.2045 144.776 27.1534 144.094 26.3466C143.412 25.5398 142.412 25.1364 141.094 25.1364C139.957 25.1364 138.912 25.4432 137.957 26.0568C137.014 26.6591 136.213 27.5398 135.554 28.6989C134.906 29.858 134.452 31.2614 134.19 32.9091C133.918 34.5795 133.912 36 134.173 37.1705C134.435 38.3409 134.935 39.233 135.673 39.8466C136.412 40.4602 137.344 40.767 138.469 40.767C139.31 40.767 140.088 40.5966 140.804 40.2557C141.531 39.9148 142.168 39.4205 142.713 38.7727C143.259 38.1136 143.679 37.3239 143.974 36.4034H150.827C150.361 38.4148 149.514 40.1761 148.287 41.6875C147.071 43.1989 145.543 44.3807 143.702 45.233C141.861 46.0852 139.776 46.5114 137.446 46.5114Z" fill="black"/>
<path d="M2.46116 48.1812L8.25661 13.2721H15.6373L13.0975 28.6641H13.5578L28.66 13.2721H37.5066L22.0123 28.9027L31.8646 48.1812H23.035L15.91 33.8289L11.5123 38.2948L9.84184 48.1812H2.46116ZM45.3603 48.6925C42.6899 48.6925 40.4796 48.1243 38.7296 46.988C36.9796 45.8402 35.7467 44.2493 35.0308 42.2152C34.3262 40.1698 34.1955 37.7891 34.6387 35.0732C35.0705 32.3914 35.9683 30.0448 37.3319 28.0334C38.6955 26.0221 40.4285 24.4596 42.5308 23.3459C44.633 22.2209 47.0024 21.6584 49.6387 21.6584C52.2978 21.6584 54.5024 22.2323 56.2524 23.38C58.0024 24.5164 59.2353 26.1073 59.9512 28.1527C60.6671 30.1982 60.8035 32.5789 60.3603 35.2948C59.9171 37.9652 59.008 40.3062 57.633 42.3175C56.258 44.3289 54.5251 45.8971 52.4342 47.0221C50.3433 48.1357 47.9853 48.6925 45.3603 48.6925ZM46.0762 43.0675C47.3035 43.0675 48.3887 42.7209 49.3319 42.0277C50.2864 41.3232 51.0762 40.3687 51.7012 39.1641C52.3376 37.9482 52.7808 36.5732 53.0308 35.0391C53.2808 33.5277 53.2978 32.1868 53.0819 31.0164C52.866 29.8346 52.4114 28.9027 51.7183 28.2209C51.0364 27.5391 50.0989 27.1982 48.9058 27.1982C47.6785 27.1982 46.5876 27.5505 45.633 28.255C44.6785 28.9482 43.8887 29.9027 43.2637 31.1187C42.6387 32.3346 42.2012 33.7152 41.9512 35.2607C41.7126 36.7607 41.6955 38.1016 41.9001 39.2834C42.1046 40.4539 42.5535 41.38 43.2467 42.0618C43.9399 42.7323 44.883 43.0675 46.0762 43.0675ZM75.616 48.1812H63.0705L68.866 13.2721H81.1728C84.6842 13.2721 87.5989 13.988 89.9171 15.4198C92.2467 16.8516 93.8887 18.9027 94.8433 21.5732C95.7978 24.2323 95.9683 27.4084 95.3546 31.1016C94.7637 34.6698 93.5876 37.7323 91.8262 40.2891C90.0649 42.8346 87.8092 44.7891 85.0592 46.1527C82.3092 47.505 79.1614 48.1812 75.616 48.1812ZM71.508 41.8573H76.0421C78.2353 41.8573 80.1558 41.4482 81.8035 40.63C83.4626 39.8118 84.8205 38.5505 85.8774 36.8459C86.9455 35.1414 87.7012 32.9596 88.1444 30.3005C88.5649 27.7777 88.5364 25.7323 88.0592 24.1641C87.5933 22.5846 86.6899 21.4312 85.3489 20.7039C84.008 19.9652 82.2467 19.5959 80.0649 19.5959H75.2069L71.508 41.8573ZM109.72 48.6925C107.049 48.6925 104.839 48.1243 103.089 46.988C101.339 45.8402 100.106 44.2493 99.3901 42.2152C98.6856 40.1698 98.5549 37.7891 98.9981 35.0732C99.4299 32.3914 100.328 30.0448 101.691 28.0334C103.055 26.0221 104.788 24.4596 106.89 23.3459C108.992 22.2209 111.362 21.6584 113.998 21.6584C116.657 21.6584 118.862 22.2323 120.612 23.38C122.362 24.5164 123.595 26.1073 124.311 28.1527C125.027 30.1982 125.163 32.5789 124.72 35.2948C124.277 37.9652 123.367 40.3062 121.992 42.3175C120.617 44.3289 118.884 45.8971 116.794 47.0221C114.703 48.1357 112.345 48.6925 109.72 48.6925ZM110.436 43.0675C111.663 43.0675 112.748 42.7209 113.691 42.0277C114.646 41.3232 115.436 40.3687 116.061 39.1641C116.697 37.9482 117.14 36.5732 117.39 35.0391C117.64 33.5277 117.657 32.1868 117.441 31.0164C117.225 29.8346 116.771 28.9027 116.078 28.2209C115.396 27.5391 114.458 27.1982 113.265 27.1982C112.038 27.1982 110.947 27.5505 109.992 28.255C109.038 28.9482 108.248 29.9027 107.623 31.1187C106.998 32.3346 106.561 33.7152 106.311 35.2607C106.072 36.7607 106.055 38.1016 106.259 39.2834C106.464 40.4539 106.913 41.38 107.606 42.0618C108.299 42.7323 109.242 43.0675 110.436 43.0675ZM139.055 48.6925C136.362 48.6925 134.146 48.1243 132.407 46.988C130.68 45.8402 129.47 44.2493 128.777 42.2152C128.095 40.1812 127.975 37.8402 128.419 35.1925C128.85 32.5107 129.754 30.1584 131.129 28.1357C132.504 26.1016 134.248 24.5164 136.362 23.38C138.487 22.2323 140.873 21.6584 143.521 21.6584C145.805 21.6584 147.737 22.0732 149.316 22.9027C150.896 23.7323 152.055 24.8971 152.794 26.3971C153.532 27.8971 153.782 29.6584 153.544 31.6812H146.708C146.72 30.3857 146.384 29.3346 145.703 28.5277C145.021 27.7209 144.021 27.3175 142.703 27.3175C141.566 27.3175 140.521 27.6243 139.566 28.238C138.623 28.8402 137.822 29.7209 137.163 30.88C136.515 32.0391 136.061 33.4425 135.799 35.0902C135.527 36.7607 135.521 38.1812 135.782 39.3516C136.044 40.5221 136.544 41.4141 137.282 42.0277C138.021 42.6414 138.953 42.9482 140.078 42.9482C140.919 42.9482 141.697 42.7777 142.413 42.4368C143.14 42.0959 143.777 41.6016 144.322 40.9539C144.867 40.2948 145.288 39.505 145.583 38.5846H152.436C151.97 40.5959 151.123 42.3573 149.896 43.8687C148.68 45.38 147.152 46.5618 145.311 47.4141C143.47 48.2664 141.384 48.6925 139.055 48.6925Z" fill="#5FB05D"/>
</svg>
