<?xml version="1.0" encoding="UTF-8" standalone="no"?>
<!DOCTYPE svg PUBLIC "-//W3C//DTD SVG 1.1//EN" "http://www.w3.org/Graphics/SVG/1.1/DTD/svg11.dtd">
<svg xmlns="http://www.w3.org/2000/svg" version="1.1" viewBox="0.00 0.00 380.00 176.00">
<g stroke-width="2.00" fill="none" stroke-linecap="butt">
<path stroke="#3b5c3a" vector-effect="non-scaling-stroke" d="
  M 128.09 176.00
  Q 128.71 174.90 130.17 174.70
  Q 130.49 174.66 130.40 174.35
  L 130.29 173.96
  A 0.26 0.26 0.0 0 0 130.01 173.76
  Q 125.96 173.98 122.60 176.00"
/>
<path stroke="#3b5c3a" vector-effect="non-scaling-stroke" d="
  M 43.27 176.00
  Q 34.81 171.43 29.62 167.38
  C 19.46 159.45 12.66 146.66 8.89 134.29
  Q 4.59 120.17 4.04 106.26
  Q 3.85 101.26 0.00 97.80"
/>
<path stroke="#a2d0a0" vector-effect="non-scaling-stroke" d="
  M 11.99 28.47
  C 8.57 33.34 6.52 38.56 7.67 44.52
  Q 8.40 48.27 9.47 52.11
  C 11.89 60.77 20.62 66.58 29.26 61.50
  Q 35.87 57.61 39.33 49.38
  C 43.19 40.21 38.08 30.22 30.42 24.92
  C 23.92 20.42 16.35 22.26 11.99 28.47"
/>
<path stroke="#3b5c3a" vector-effect="non-scaling-stroke" d="
  M 57.62 121.06
  Q 61.23 113.45 66.15 107.16
  A 0.56 0.56 0.0 0 0 66.03 106.35
  Q 65.67 106.10 65.30 106.33
  Q 63.07 107.76 61.59 110.12
  C 59.22 113.89 55.85 118.77 54.92 122.99
  Q 54.16 126.41 56.23 123.59
  Q 56.79 122.82 57.62 121.06"
/>
<path stroke="#a2d0a0" vector-effect="non-scaling-stroke" d="
  M 142.81 121.82
  C 140.98 124.72 141.21 129.48 140.67 132.84
  C 139.25 141.73 141.73 148.82 150.44 152.93
  C 158.89 156.93 169.33 153.50 175.15 146.31
  Q 183.24 136.31 178.56 124.68
  C 176.16 118.72 170.43 114.18 164.36 112.91
  Q 150.31 109.96 142.81 121.82"
/>
<path stroke="#3b5c3a" vector-effect="non-scaling-stroke" d="
  M 80.0470 114.0771
  A 0.81 0.81 0.0 0 0 79.7428 112.9727
  L 79.7081 112.9530
  A 0.81 0.81 0.0 0 0 78.6037 113.2572
  L 69.6930 128.9429
  A 0.81 0.81 0.0 0 0 69.9972 130.0473
  L 70.0319 130.0670
  A 0.81 0.81 0.0 0 0 71.1363 129.7628
  L 80.0470 114.0771"
/>
<path stroke="#687467" vector-effect="non-scaling-stroke" d="
  M 21.6019 48.4014
  A 6.27 5.71 93.0 0 0 27.6322 42.4388
  A 6.27 5.71 93.0 0 0 22.2581 35.8786
  A 6.27 5.71 93.0 0 0 16.2278 41.8412
  A 6.27 5.71 93.0 0 0 21.6019 48.4014"
/>
<path stroke="#3b5c3a" vector-effect="non-scaling-stroke" d="
  M 39.40 176.00
  Q 25.65 168.77 18.83 158.93
  C 10.22 146.53 5.64 133.25 3.23 118.46
  Q 3.04 117.27 2.72 111.01
  Q 2.44 105.40 0.00 100.60"
/>
<path stroke="#687467" vector-effect="non-scaling-stroke" d="
  M 159.0628 139.9371
  A 7.42 6.79 91.6 0 0 166.0574 132.7096
  A 7.42 6.79 91.6 0 0 159.4772 125.1029
  A 7.42 6.79 91.6 0 0 152.4826 132.3304
  A 7.42 6.79 91.6 0 0 159.0628 139.9371"
/>
</g>
<path fill="#75b873" d="
  M 192.08 176.00
  L 128.09 176.00
  Q 128.71 174.90 130.17 174.70
  Q 130.49 174.66 130.40 174.35
  L 130.29 173.96
  A 0.26 0.26 0.0 0 0 130.01 173.76
  Q 125.96 173.98 122.60 176.00
  L 43.27 176.00
  Q 34.81 171.43 29.62 167.38
  C 19.46 159.45 12.66 146.66 8.89 134.29
  Q 4.59 120.17 4.04 106.26
  Q 3.85 101.26 0.00 97.80
  L 0.00 9.50
  Q 11.29 2.57 24.02 1.33
  Q 35.18 0.24 43.78 3.76
  C 56.44 8.94 67.35 22.04 69.51 35.85
  Q 71.42 48.00 68.69 59.95
  C 67.41 65.51 65.84 71.48 63.66 76.98
  A 1.37 1.37 0.0 0 0 64.56 78.80
  Q 76.80 82.33 91.38 87.65
  C 99.37 90.56 107.21 95.23 112.47 101.92
  A 1.18 1.18 0.0 0 0 113.97 102.22
  Q 122.33 97.61 133.44 96.40
  C 148.65 94.74 165.17 95.10 179.07 99.83
  Q 189.66 103.43 196.74 112.92
  C 201.86 119.77 202.79 127.85 202.97 136.28
  Q 203.14 143.90 200.03 154.24
  Q 195.92 167.88 192.08 176.00
  Z
  M 11.99 28.47
  C 8.57 33.34 6.52 38.56 7.67 44.52
  Q 8.40 48.27 9.47 52.11
  C 11.89 60.77 20.62 66.58 29.26 61.50
  Q 35.87 57.61 39.33 49.38
  C 43.19 40.21 38.08 30.22 30.42 24.92
  C 23.92 20.42 16.35 22.26 11.99 28.47
  Z
  M 57.62 121.06
  Q 61.23 113.45 66.15 107.16
  A 0.56 0.56 0.0 0 0 66.03 106.35
  Q 65.67 106.10 65.30 106.33
  Q 63.07 107.76 61.59 110.12
  C 59.22 113.89 55.85 118.77 54.92 122.99
  Q 54.16 126.41 56.23 123.59
  Q 56.79 122.82 57.62 121.06
  Z
  M 142.81 121.82
  C 140.98 124.72 141.21 129.48 140.67 132.84
  C 139.25 141.73 141.73 148.82 150.44 152.93
  C 158.89 156.93 169.33 153.50 175.15 146.31
  Q 183.24 136.31 178.56 124.68
  C 176.16 118.72 170.43 114.18 164.36 112.91
  Q 150.31 109.96 142.81 121.82
  Z
  M 80.0470 114.0771
  A 0.81 0.81 0.0 0 0 79.7428 112.9727
  L 79.7081 112.9530
  A 0.81 0.81 0.0 0 0 78.6037 113.2572
  L 69.6930 128.9429
  A 0.81 0.81 0.0 0 0 69.9972 130.0473
  L 70.0319 130.0670
  A 0.81 0.81 0.0 0 0 71.1363 129.7628
  L 80.0470 114.0771
  Z"
/>
<path fill="#cfe8cd" d="
  M 7.67 44.52
  C 6.52 38.56 8.57 33.34 11.99 28.47
  C 16.35 22.26 23.92 20.42 30.42 24.92
  C 38.08 30.22 43.19 40.21 39.33 49.38
  Q 35.87 57.61 29.26 61.50
  C 20.62 66.58 11.89 60.77 9.47 52.11
  Q 8.40 48.27 7.67 44.52
  Z
  M 21.6019 48.4014
  A 6.27 5.71 93.0 0 0 27.6322 42.4388
  A 6.27 5.71 93.0 0 0 22.2581 35.8786
  A 6.27 5.71 93.0 0 0 16.2278 41.8412
  A 6.27 5.71 93.0 0 0 21.6019 48.4014
  Z"
/>
<ellipse fill="#000000" cx="0.00" cy="0.00" transform="translate(21.93,42.14) rotate(93.0)" rx="6.27" ry="5.71"/>
<path fill="#000000" d="
  M 0.00 97.80
  Q 3.85 101.26 4.04 106.26
  Q 4.59 120.17 8.89 134.29
  C 12.66 146.66 19.46 159.45 29.62 167.38
  Q 34.81 171.43 43.27 176.00
  L 39.40 176.00
  Q 25.65 168.77 18.83 158.93
  C 10.22 146.53 5.64 133.25 3.23 118.46
  Q 3.04 117.27 2.72 111.01
  Q 2.44 105.40 0.00 100.60
  L 0.00 97.80
  Z"
/>
<path fill="#75b873" d="
  M 0.00 100.60
  Q 2.44 105.40 2.72 111.01
  Q 3.04 117.27 3.23 118.46
  C 5.64 133.25 10.22 146.53 18.83 158.93
  Q 25.65 168.77 39.40 176.00
  L 0.00 176.00
  L 0.00 100.60
  Z"
/>
<path fill="#000000" d="
  M 57.62 121.06
  Q 56.79 122.82 56.23 123.59
  Q 54.16 126.41 54.92 122.99
  C 55.85 118.77 59.22 113.89 61.59 110.12
  Q 63.07 107.76 65.30 106.33
  Q 65.67 106.10 66.03 106.35
  A 0.56 0.56 0.0 0 1 66.15 107.16
  Q 61.23 113.45 57.62 121.06
  Z"
/>
<path fill="#cfe8cd" d="
  M 142.81 121.82
  Q 150.31 109.96 164.36 112.91
  C 170.43 114.18 176.16 118.72 178.56 124.68
  Q 183.24 136.31 175.15 146.31
  C 169.33 153.50 158.89 156.93 150.44 152.93
  C 141.73 148.82 139.25 141.73 140.67 132.84
  C 141.21 129.48 140.98 124.72 142.81 121.82
  Z
  M 159.0628 139.9371
  A 7.42 6.79 91.6 0 0 166.0574 132.7096
  A 7.42 6.79 91.6 0 0 159.4772 125.1029
  A 7.42 6.79 91.6 0 0 152.4826 132.3304
  A 7.42 6.79 91.6 0 0 159.0628 139.9371
  Z"
/>
<rect fill="#000000" x="-0.83" y="-9.83" transform="translate(74.87,121.51) rotate(29.6)" width="1.66" height="19.66" rx="0.81"/>
<ellipse fill="#000000" cx="0.00" cy="0.00" transform="translate(159.27,132.52) rotate(91.6)" rx="7.42" ry="6.79"/>
<path fill="#000000" d="
  M 128.09 176.00
  L 122.60 176.00
  Q 125.96 173.98 130.01 173.76
  A 0.26 0.26 0.0 0 1 130.29 173.96
  L 130.40 174.35
  Q 130.49 174.66 130.17 174.70
  Q 128.71 174.90 128.09 176.00
  Z"
/>
</svg>
